<svg xmlns="http://www.w3.org/2000/svg" xmlns:xlink="http://www.w3.org/1999/xlink" width="1920" height="1080" viewBox="0 0 1920 1080">
  <defs>
    <clipPath id="clip-Web_1920_3">
      <rect width="1920" height="1080"/>
    </clipPath>
  </defs>
  <g id="Web_1920_3" data-name="Web 1920 – 3" clip-path="url(#clip-Web_1920_3)">
    <rect width="1920" height="1080" fill="#7555d9"/>
    <g id="Group_568" data-name="Group 568">
      <g id="Polygon_16" data-name="Polygon 16" transform="translate(-19 -31)" fill="none" opacity="0.3">
        <path d="M122.25,0,163,70.5,122.25,141H40.75L0,70.5,40.75,0Z" stroke="none"/>
        <path d="M 42.48107147216797 3 L 3.465087890625 70.5 L 42.48104858398438 138 L 120.5189514160156 138 L 159.534912109375 70.5 L 120.5189514160156 3 L 42.48107147216797 3 M 40.75002288818359 0 L 122.25 0 L 163 70.5 L 122.25 141 L 40.75 141 L 0 70.5 L 40.75002288818359 0 Z" stroke="none" fill="#dddff8"/>
      </g>
      <g id="Polygon_36" data-name="Polygon 36" transform="translate(145 1118) rotate(180)" fill="none" opacity="0.3">
        <path d="M122.25,0,163,70.5,122.25,141H40.75L0,70.5,40.75,0Z" stroke="none"/>
        <path d="M 42.48107147216797 3 L 3.465087890625 70.5 L 42.48104858398438 138 L 120.5189514160156 138 L 159.534912109375 70.5 L 120.5189514160156 3 L 42.48107147216797 3 M 40.75002288818359 0 L 122.25 0 L 163 70.5 L 122.25 141 L 40.75 141 L 0 70.5 L 40.75002288818359 0 Z" stroke="none" fill="#dddff8"/>
      </g>
      <g id="Polygon_21" data-name="Polygon 21" transform="translate(470 -31)" fill="none" opacity="0.3">
        <path d="M122.25,0,163,70.5,122.25,141H40.75L0,70.5,40.75,0Z" stroke="none"/>
        <path d="M 42.48107147216797 3 L 3.465087890625 70.5 L 42.48104858398438 138 L 120.5189514160156 138 L 159.534912109375 70.5 L 120.5189514160156 3 L 42.48107147216797 3 M 40.75002288818359 0 L 122.25 0 L 163 70.5 L 122.25 141 L 40.75 141 L 0 70.5 L 40.75002288818359 0 Z" stroke="none" fill="#dddff8"/>
      </g>
      <g id="Polygon_41" data-name="Polygon 41" transform="translate(634 1118) rotate(180)" fill="none" opacity="0.3">
        <path d="M122.25,0,163,70.5,122.25,141H40.75L0,70.5,40.75,0Z" stroke="none"/>
        <path d="M 42.48107147216797 3 L 3.465087890625 70.5 L 42.48104858398438 138 L 120.5189514160156 138 L 159.534912109375 70.5 L 120.5189514160156 3 L 42.48107147216797 3 M 40.75002288818359 0 L 122.25 0 L 163 70.5 L 122.25 141 L 40.75 141 L 0 70.5 L 40.75002288818359 0 Z" stroke="none" fill="#dddff8"/>
      </g>
      <g id="Polygon_26" data-name="Polygon 26" transform="translate(959 -31)" fill="none" opacity="0.3">
        <path d="M122.25,0,163,70.5,122.25,141H40.75L0,70.5,40.75,0Z" stroke="none"/>
        <path d="M 42.48107147216797 3 L 3.465087890625 70.5 L 42.48104858398438 138 L 120.5189514160156 138 L 159.534912109375 70.5 L 120.5189514160156 3 L 42.48107147216797 3 M 40.75002288818359 0 L 122.25 0 L 163 70.5 L 122.25 141 L 40.75 141 L 0 70.5 L 40.75002288818359 0 Z" stroke="none" fill="#dddff8"/>
      </g>
      <g id="Polygon_46" data-name="Polygon 46" transform="translate(1123 1118) rotate(180)" fill="none" opacity="0.3">
        <path d="M122.25,0,163,70.5,122.25,141H40.75L0,70.5,40.75,0Z" stroke="none"/>
        <path d="M 42.48107147216797 3 L 3.465087890625 70.5 L 42.48104858398438 138 L 120.5189514160156 138 L 159.534912109375 70.5 L 120.5189514160156 3 L 42.48107147216797 3 M 40.75002288818359 0 L 122.25 0 L 163 70.5 L 122.25 141 L 40.75 141 L 0 70.5 L 40.75002288818359 0 Z" stroke="none" fill="#dddff8"/>
      </g>
      <g id="Polygon_31" data-name="Polygon 31" transform="translate(1448 -31)" fill="none" opacity="0.3">
        <path d="M122.25,0,163,70.5,122.25,141H40.75L0,70.5,40.75,0Z" stroke="none"/>
        <path d="M 42.48107147216797 3 L 3.465087890625 70.5 L 42.48104858398438 138 L 120.5189514160156 138 L 159.534912109375 70.5 L 120.5189514160156 3 L 42.48107147216797 3 M 40.75002288818359 0 L 122.25 0 L 163 70.5 L 122.25 141 L 40.75 141 L 0 70.5 L 40.75002288818359 0 Z" stroke="none" fill="#dddff8"/>
      </g>
      <g id="Polygon_51" data-name="Polygon 51" transform="translate(1612 1118) rotate(180)" fill="none" opacity="0.3">
        <path d="M122.25,0,163,70.5,122.25,141H40.75L0,70.5,40.75,0Z" stroke="none"/>
        <path d="M 42.48107147216797 3 L 3.465087890625 70.5 L 42.48104858398438 138 L 120.5189514160156 138 L 159.534912109375 70.5 L 120.5189514160156 3 L 42.48107147216797 3 M 40.75002288818359 0 L 122.25 0 L 163 70.5 L 122.25 141 L 40.75 141 L 0 70.5 L 40.75002288818359 0 Z" stroke="none" fill="#dddff8"/>
      </g>
      <g id="Polygon_17" data-name="Polygon 17" transform="translate(62 26)" fill="none" opacity="0.3">
        <path d="M122.25,0,163,70.5,122.25,141H40.75L0,70.5,40.75,0Z" stroke="none"/>
        <path d="M 42.48107147216797 3 L 3.465087890625 70.5 L 42.48104858398438 138 L 120.5189514160156 138 L 159.534912109375 70.5 L 120.5189514160156 3 L 42.48107147216797 3 M 40.75002288818359 0 L 122.25 0 L 163 70.5 L 122.25 141 L 40.75 141 L 0 70.5 L 40.75002288818359 0 Z" stroke="none" fill="#dddff8"/>
      </g>
      <g id="Polygon_37" data-name="Polygon 37" transform="translate(226 1061) rotate(180)" fill="none" opacity="0.3">
        <path d="M122.25,0,163,70.5,122.25,141H40.75L0,70.5,40.75,0Z" stroke="none"/>
        <path d="M 42.48107147216797 3 L 3.465087890625 70.5 L 42.48104858398438 138 L 120.5189514160156 138 L 159.534912109375 70.5 L 120.5189514160156 3 L 42.48107147216797 3 M 40.75002288818359 0 L 122.25 0 L 163 70.5 L 122.25 141 L 40.75 141 L 0 70.5 L 40.75002288818359 0 Z" stroke="none" fill="#dddff8"/>
      </g>
      <g id="Polygon_22" data-name="Polygon 22" transform="translate(551 26)" fill="none" opacity="0.3">
        <path d="M122.25,0,163,70.5,122.25,141H40.75L0,70.5,40.75,0Z" stroke="none"/>
        <path d="M 42.48107147216797 3 L 3.465087890625 70.5 L 42.48104858398438 138 L 120.5189514160156 138 L 159.534912109375 70.5 L 120.5189514160156 3 L 42.48107147216797 3 M 40.75002288818359 0 L 122.25 0 L 163 70.5 L 122.25 141 L 40.75 141 L 0 70.5 L 40.75002288818359 0 Z" stroke="none" fill="#dddff8"/>
      </g>
      <g id="Polygon_42" data-name="Polygon 42" transform="translate(715 1061) rotate(180)" fill="none" opacity="0.3">
        <path d="M122.25,0,163,70.5,122.25,141H40.75L0,70.5,40.75,0Z" stroke="none"/>
        <path d="M 42.48107147216797 3 L 3.465087890625 70.5 L 42.48104858398438 138 L 120.5189514160156 138 L 159.534912109375 70.5 L 120.5189514160156 3 L 42.48107147216797 3 M 40.75002288818359 0 L 122.25 0 L 163 70.5 L 122.25 141 L 40.75 141 L 0 70.5 L 40.75002288818359 0 Z" stroke="none" fill="#dddff8"/>
      </g>
      <g id="Polygon_27" data-name="Polygon 27" transform="translate(1040 26)" fill="none" opacity="0.3">
        <path d="M122.25,0,163,70.5,122.25,141H40.75L0,70.5,40.75,0Z" stroke="none"/>
        <path d="M 42.48107147216797 3 L 3.465087890625 70.5 L 42.48104858398438 138 L 120.5189514160156 138 L 159.534912109375 70.5 L 120.5189514160156 3 L 42.48107147216797 3 M 40.75002288818359 0 L 122.25 0 L 163 70.5 L 122.25 141 L 40.75 141 L 0 70.5 L 40.75002288818359 0 Z" stroke="none" fill="#dddff8"/>
      </g>
      <g id="Polygon_47" data-name="Polygon 47" transform="translate(1204 1061) rotate(180)" fill="none" opacity="0.3">
        <path d="M122.25,0,163,70.5,122.25,141H40.75L0,70.5,40.75,0Z" stroke="none"/>
        <path d="M 42.48107147216797 3 L 3.465087890625 70.5 L 42.48104858398438 138 L 120.5189514160156 138 L 159.534912109375 70.5 L 120.5189514160156 3 L 42.48107147216797 3 M 40.75002288818359 0 L 122.25 0 L 163 70.5 L 122.25 141 L 40.75 141 L 0 70.5 L 40.75002288818359 0 Z" stroke="none" fill="#dddff8"/>
      </g>
      <g id="Polygon_32" data-name="Polygon 32" transform="translate(1529 26)" fill="none" opacity="0.3">
        <path d="M122.25,0,163,70.5,122.25,141H40.75L0,70.5,40.75,0Z" stroke="none"/>
        <path d="M 42.48107147216797 3 L 3.465087890625 70.5 L 42.48104858398438 138 L 120.5189514160156 138 L 159.534912109375 70.5 L 120.5189514160156 3 L 42.48107147216797 3 M 40.75002288818359 0 L 122.25 0 L 163 70.5 L 122.25 141 L 40.75 141 L 0 70.5 L 40.75002288818359 0 Z" stroke="none" fill="#dddff8"/>
      </g>
      <g id="Polygon_52" data-name="Polygon 52" transform="translate(1693 1061) rotate(180)" fill="none" opacity="0.3">
        <path d="M122.25,0,163,70.5,122.25,141H40.75L0,70.5,40.75,0Z" stroke="none"/>
        <path d="M 42.48107147216797 3 L 3.465087890625 70.5 L 42.48104858398438 138 L 120.5189514160156 138 L 159.534912109375 70.5 L 120.5189514160156 3 L 42.48107147216797 3 M 40.75002288818359 0 L 122.25 0 L 163 70.5 L 122.25 141 L 40.75 141 L 0 70.5 L 40.75002288818359 0 Z" stroke="none" fill="#dddff8"/>
      </g>
      <g id="Polygon_18" data-name="Polygon 18" transform="translate(144 -31)" fill="none" opacity="0.3">
        <path d="M122.25,0,163,70.5,122.25,141H40.75L0,70.5,40.75,0Z" stroke="none"/>
        <path d="M 42.48107147216797 3 L 3.465087890625 70.5 L 42.48104858398438 138 L 120.5189514160156 138 L 159.534912109375 70.5 L 120.5189514160156 3 L 42.48107147216797 3 M 40.75002288818359 0 L 122.25 0 L 163 70.5 L 122.25 141 L 40.75 141 L 0 70.5 L 40.75002288818359 0 Z" stroke="none" fill="#dddff8"/>
      </g>
      <g id="Polygon_38" data-name="Polygon 38" transform="translate(308 1118) rotate(180)" fill="none" opacity="0.3">
        <path d="M122.25,0,163,70.5,122.25,141H40.75L0,70.5,40.75,0Z" stroke="none"/>
        <path d="M 42.48107147216797 3 L 3.465087890625 70.5 L 42.48104858398438 138 L 120.5189514160156 138 L 159.534912109375 70.5 L 120.5189514160156 3 L 42.48107147216797 3 M 40.75002288818359 0 L 122.25 0 L 163 70.5 L 122.25 141 L 40.75 141 L 0 70.5 L 40.75002288818359 0 Z" stroke="none" fill="#dddff8"/>
      </g>
      <g id="Polygon_23" data-name="Polygon 23" transform="translate(633 -31)" fill="none" opacity="0.3">
        <path d="M122.25,0,163,70.5,122.25,141H40.75L0,70.5,40.75,0Z" stroke="none"/>
        <path d="M 42.48107147216797 3 L 3.465087890625 70.5 L 42.48104858398438 138 L 120.5189514160156 138 L 159.534912109375 70.5 L 120.5189514160156 3 L 42.48107147216797 3 M 40.75002288818359 0 L 122.25 0 L 163 70.5 L 122.25 141 L 40.75 141 L 0 70.5 L 40.75002288818359 0 Z" stroke="none" fill="#dddff8"/>
      </g>
      <g id="Polygon_43" data-name="Polygon 43" transform="translate(797 1118) rotate(180)" fill="none" opacity="0.3">
        <path d="M122.25,0,163,70.5,122.25,141H40.75L0,70.5,40.75,0Z" stroke="none"/>
        <path d="M 42.48107147216797 3 L 3.465087890625 70.5 L 42.48104858398438 138 L 120.5189514160156 138 L 159.534912109375 70.5 L 120.5189514160156 3 L 42.48107147216797 3 M 40.75002288818359 0 L 122.25 0 L 163 70.5 L 122.25 141 L 40.75 141 L 0 70.5 L 40.75002288818359 0 Z" stroke="none" fill="#dddff8"/>
      </g>
      <g id="Polygon_28" data-name="Polygon 28" transform="translate(1122 -31)" fill="none" opacity="0.3">
        <path d="M122.25,0,163,70.5,122.25,141H40.75L0,70.5,40.75,0Z" stroke="none"/>
        <path d="M 42.48107147216797 3 L 3.465087890625 70.5 L 42.48104858398438 138 L 120.5189514160156 138 L 159.534912109375 70.5 L 120.5189514160156 3 L 42.48107147216797 3 M 40.75002288818359 0 L 122.25 0 L 163 70.5 L 122.25 141 L 40.75 141 L 0 70.5 L 40.75002288818359 0 Z" stroke="none" fill="#dddff8"/>
      </g>
      <g id="Polygon_48" data-name="Polygon 48" transform="translate(1286 1118) rotate(180)" fill="none" opacity="0.3">
        <path d="M122.25,0,163,70.5,122.25,141H40.75L0,70.5,40.75,0Z" stroke="none"/>
        <path d="M 42.48107147216797 3 L 3.465087890625 70.5 L 42.48104858398438 138 L 120.5189514160156 138 L 159.534912109375 70.5 L 120.5189514160156 3 L 42.48107147216797 3 M 40.75002288818359 0 L 122.25 0 L 163 70.5 L 122.25 141 L 40.75 141 L 0 70.5 L 40.75002288818359 0 Z" stroke="none" fill="#dddff8"/>
      </g>
      <g id="Polygon_33" data-name="Polygon 33" transform="translate(1611 -31)" fill="none" opacity="0.3">
        <path d="M122.25,0,163,70.5,122.25,141H40.75L0,70.5,40.75,0Z" stroke="none"/>
        <path d="M 42.48107147216797 3 L 3.465087890625 70.5 L 42.48104858398438 138 L 120.5189514160156 138 L 159.534912109375 70.5 L 120.5189514160156 3 L 42.48107147216797 3 M 40.75002288818359 0 L 122.25 0 L 163 70.5 L 122.25 141 L 40.75 141 L 0 70.5 L 40.75002288818359 0 Z" stroke="none" fill="#dddff8"/>
      </g>
      <g id="Polygon_53" data-name="Polygon 53" transform="translate(1775 1118) rotate(180)" fill="none" opacity="0.3">
        <path d="M122.25,0,163,70.5,122.25,141H40.75L0,70.5,40.75,0Z" stroke="none"/>
        <path d="M 42.48107147216797 3 L 3.465087890625 70.5 L 42.48104858398438 138 L 120.5189514160156 138 L 159.534912109375 70.5 L 120.5189514160156 3 L 42.48107147216797 3 M 40.75002288818359 0 L 122.25 0 L 163 70.5 L 122.25 141 L 40.75 141 L 0 70.5 L 40.75002288818359 0 Z" stroke="none" fill="#dddff8"/>
      </g>
      <g id="Polygon_19" data-name="Polygon 19" transform="translate(225 26)" fill="none" opacity="0.3">
        <path d="M122.25,0,163,70.5,122.25,141H40.75L0,70.5,40.75,0Z" stroke="none"/>
        <path d="M 42.48107147216797 3 L 3.465087890625 70.5 L 42.48104858398438 138 L 120.5189514160156 138 L 159.534912109375 70.5 L 120.5189514160156 3 L 42.48107147216797 3 M 40.75002288818359 0 L 122.25 0 L 163 70.5 L 122.25 141 L 40.75 141 L 0 70.5 L 40.75002288818359 0 Z" stroke="none" fill="#dddff8"/>
      </g>
      <g id="Polygon_39" data-name="Polygon 39" transform="translate(389 1061) rotate(180)" fill="none" opacity="0.3">
        <path d="M122.25,0,163,70.5,122.25,141H40.75L0,70.5,40.75,0Z" stroke="none"/>
        <path d="M 42.48107147216797 3 L 3.465087890625 70.5 L 42.48104858398438 138 L 120.5189514160156 138 L 159.534912109375 70.5 L 120.5189514160156 3 L 42.48107147216797 3 M 40.75002288818359 0 L 122.25 0 L 163 70.5 L 122.25 141 L 40.75 141 L 0 70.5 L 40.75002288818359 0 Z" stroke="none" fill="#dddff8"/>
      </g>
      <g id="Polygon_24" data-name="Polygon 24" transform="translate(714 26)" fill="none" opacity="0.3">
        <path d="M122.25,0,163,70.5,122.25,141H40.75L0,70.5,40.75,0Z" stroke="none"/>
        <path d="M 42.48107147216797 3 L 3.465087890625 70.5 L 42.48104858398438 138 L 120.5189514160156 138 L 159.534912109375 70.5 L 120.5189514160156 3 L 42.48107147216797 3 M 40.75002288818359 0 L 122.25 0 L 163 70.5 L 122.25 141 L 40.75 141 L 0 70.5 L 40.75002288818359 0 Z" stroke="none" fill="#dddff8"/>
      </g>
      <g id="Polygon_44" data-name="Polygon 44" transform="translate(878 1061) rotate(180)" fill="none" opacity="0.3">
        <path d="M122.25,0,163,70.5,122.25,141H40.75L0,70.5,40.75,0Z" stroke="none"/>
        <path d="M 42.48107147216797 3 L 3.465087890625 70.5 L 42.48104858398438 138 L 120.5189514160156 138 L 159.534912109375 70.5 L 120.5189514160156 3 L 42.48107147216797 3 M 40.75002288818359 0 L 122.25 0 L 163 70.5 L 122.25 141 L 40.75 141 L 0 70.5 L 40.75002288818359 0 Z" stroke="none" fill="#dddff8"/>
      </g>
      <g id="Polygon_30" data-name="Polygon 30" transform="translate(1203 26)" fill="none" opacity="0.3">
        <path d="M122.25,0,163,70.5,122.25,141H40.75L0,70.5,40.75,0Z" stroke="none"/>
        <path d="M 42.48107147216797 3 L 3.465087890625 70.5 L 42.48104858398438 138 L 120.5189514160156 138 L 159.534912109375 70.5 L 120.5189514160156 3 L 42.48107147216797 3 M 40.75002288818359 0 L 122.25 0 L 163 70.5 L 122.25 141 L 40.75 141 L 0 70.5 L 40.75002288818359 0 Z" stroke="none" fill="#dddff8"/>
      </g>
      <g id="Polygon_49" data-name="Polygon 49" transform="translate(1367 1061) rotate(180)" fill="none" opacity="0.3">
        <path d="M122.25,0,163,70.5,122.25,141H40.75L0,70.5,40.75,0Z" stroke="none"/>
        <path d="M 42.48107147216797 3 L 3.465087890625 70.5 L 42.48104858398438 138 L 120.5189514160156 138 L 159.534912109375 70.5 L 120.5189514160156 3 L 42.48107147216797 3 M 40.75002288818359 0 L 122.25 0 L 163 70.5 L 122.25 141 L 40.75 141 L 0 70.5 L 40.75002288818359 0 Z" stroke="none" fill="#dddff8"/>
      </g>
      <g id="Polygon_35" data-name="Polygon 35" transform="translate(1692 26)" fill="none" opacity="0.3">
        <path d="M122.25,0,163,70.5,122.25,141H40.75L0,70.5,40.75,0Z" stroke="none"/>
        <path d="M 42.48107147216797 3 L 3.465087890625 70.5 L 42.48104858398438 138 L 120.5189514160156 138 L 159.534912109375 70.5 L 120.5189514160156 3 L 42.48107147216797 3 M 40.75002288818359 0 L 122.25 0 L 163 70.5 L 122.25 141 L 40.75 141 L 0 70.5 L 40.75002288818359 0 Z" stroke="none" fill="#dddff8"/>
      </g>
      <g id="Polygon_54" data-name="Polygon 54" transform="translate(1856 1061) rotate(180)" fill="none" opacity="0.3">
        <path d="M122.25,0,163,70.5,122.25,141H40.75L0,70.5,40.75,0Z" stroke="none"/>
        <path d="M 42.48107147216797 3 L 3.465087890625 70.5 L 42.48104858398438 138 L 120.5189514160156 138 L 159.534912109375 70.5 L 120.5189514160156 3 L 42.48107147216797 3 M 40.75002288818359 0 L 122.25 0 L 163 70.5 L 122.25 141 L 40.75 141 L 0 70.5 L 40.75002288818359 0 Z" stroke="none" fill="#dddff8"/>
      </g>
      <g id="Polygon_20" data-name="Polygon 20" transform="translate(307 -30)" fill="none" opacity="0.3">
        <path d="M122.25,0,163,70.5,122.25,141H40.75L0,70.5,40.75,0Z" stroke="none"/>
        <path d="M 42.48107147216797 3 L 3.465087890625 70.5 L 42.48104858398438 138 L 120.5189514160156 138 L 159.534912109375 70.5 L 120.5189514160156 3 L 42.48107147216797 3 M 40.75002288818359 0 L 122.25 0 L 163 70.5 L 122.25 141 L 40.75 141 L 0 70.5 L 40.75002288818359 0 Z" stroke="none" fill="#dddff8"/>
      </g>
      <g id="Polygon_40" data-name="Polygon 40" transform="translate(471 1117) rotate(180)" fill="none" opacity="0.3">
        <path d="M122.25,0,163,70.5,122.25,141H40.75L0,70.5,40.75,0Z" stroke="none"/>
        <path d="M 42.48107147216797 3 L 3.465087890625 70.5 L 42.48104858398438 138 L 120.5189514160156 138 L 159.534912109375 70.5 L 120.5189514160156 3 L 42.48107147216797 3 M 40.75002288818359 0 L 122.25 0 L 163 70.5 L 122.25 141 L 40.75 141 L 0 70.5 L 40.75002288818359 0 Z" stroke="none" fill="#dddff8"/>
      </g>
      <g id="Polygon_25" data-name="Polygon 25" transform="translate(796 -30)" fill="none" opacity="0.3">
        <path d="M122.25,0,163,70.5,122.25,141H40.75L0,70.5,40.75,0Z" stroke="none"/>
        <path d="M 42.48107147216797 3 L 3.465087890625 70.5 L 42.48104858398438 138 L 120.5189514160156 138 L 159.534912109375 70.5 L 120.5189514160156 3 L 42.48107147216797 3 M 40.75002288818359 0 L 122.25 0 L 163 70.5 L 122.25 141 L 40.75 141 L 0 70.5 L 40.75002288818359 0 Z" stroke="none" fill="#dddff8"/>
      </g>
      <g id="Polygon_45" data-name="Polygon 45" transform="translate(960 1117) rotate(180)" fill="none" opacity="0.3">
        <path d="M122.25,0,163,70.5,122.25,141H40.75L0,70.5,40.75,0Z" stroke="none"/>
        <path d="M 42.48107147216797 3 L 3.465087890625 70.5 L 42.48104858398438 138 L 120.5189514160156 138 L 159.534912109375 70.5 L 120.5189514160156 3 L 42.48107147216797 3 M 40.75002288818359 0 L 122.25 0 L 163 70.5 L 122.25 141 L 40.75 141 L 0 70.5 L 40.75002288818359 0 Z" stroke="none" fill="#dddff8"/>
      </g>
      <g id="Polygon_29" data-name="Polygon 29" transform="translate(1285 -30)" fill="none" opacity="0.3">
        <path d="M122.25,0,163,70.5,122.25,141H40.75L0,70.5,40.75,0Z" stroke="none"/>
        <path d="M 42.48107147216797 3 L 3.465087890625 70.5 L 42.48104858398438 138 L 120.5189514160156 138 L 159.534912109375 70.5 L 120.5189514160156 3 L 42.48107147216797 3 M 40.75002288818359 0 L 122.25 0 L 163 70.5 L 122.25 141 L 40.75 141 L 0 70.5 L 40.75002288818359 0 Z" stroke="none" fill="#dddff8"/>
      </g>
      <g id="Polygon_50" data-name="Polygon 50" transform="translate(1449 1117) rotate(180)" fill="none" opacity="0.3">
        <path d="M122.25,0,163,70.5,122.25,141H40.75L0,70.5,40.75,0Z" stroke="none"/>
        <path d="M 42.48107147216797 3 L 3.465087890625 70.5 L 42.48104858398438 138 L 120.5189514160156 138 L 159.534912109375 70.5 L 120.5189514160156 3 L 42.48107147216797 3 M 40.75002288818359 0 L 122.25 0 L 163 70.5 L 122.25 141 L 40.75 141 L 0 70.5 L 40.75002288818359 0 Z" stroke="none" fill="#dddff8"/>
      </g>
      <g id="Polygon_34" data-name="Polygon 34" transform="translate(1774 -30)" fill="none" opacity="0.3">
        <path d="M122.25,0,163,70.5,122.25,141H40.75L0,70.5,40.75,0Z" stroke="none"/>
        <path d="M 42.48107147216797 3 L 3.465087890625 70.5 L 42.48104858398438 138 L 120.5189514160156 138 L 159.534912109375 70.5 L 120.5189514160156 3 L 42.48107147216797 3 M 40.75002288818359 0 L 122.25 0 L 163 70.5 L 122.25 141 L 40.75 141 L 0 70.5 L 40.75002288818359 0 Z" stroke="none" fill="#dddff8"/>
      </g>
      <g id="Polygon_55" data-name="Polygon 55" transform="translate(1938 1117) rotate(180)" fill="none" opacity="0.3">
        <path d="M122.25,0,163,70.5,122.25,141H40.75L0,70.5,40.75,0Z" stroke="none"/>
        <path d="M 42.48107147216797 3 L 3.465087890625 70.5 L 42.48104858398438 138 L 120.5189514160156 138 L 159.534912109375 70.5 L 120.5189514160156 3 L 42.48107147216797 3 M 40.75002288818359 0 L 122.25 0 L 163 70.5 L 122.25 141 L 40.75 141 L 0 70.5 L 40.75002288818359 0 Z" stroke="none" fill="#dddff8"/>
      </g>
    </g>
  </g>
</svg>
