<svg xmlns="http://www.w3.org/2000/svg" xmlns:xlink="http://www.w3.org/1999/xlink" width="247.282" height="177.865" viewBox="0 0 247.282 177.865"><defs><style>.a{fill:#642d3c;}.b{fill:#ffb88b;}.c{fill:#ff4e73;}.d{fill:#012156;}.e{fill:#ff945d;}.f{fill:#da3257;}.g{fill:#e8744b;}.h{clip-path:url(#a);}.i{fill:#1b3d72;}.j{clip-path:url(#b);}.k{fill:#ffd3bb;}.l{fill:#ffc43f;}.m{fill:#00c3c9;}.n{fill:#ac1a47;}.o{fill:#fff;}.p{fill:#ff8570;}.q{clip-path:url(#c);}.r{fill:#efa80a;}.s{clip-path:url(#d);}.t{fill:#009f9f;}.u{clip-path:url(#e);}.v{clip-path:url(#f);}</style><clipPath id="a"><path d="M94.322,236.79c.056,0,.056-.056.113-.056.451-1.748.959-3.5,1.466-5.132a43.028,43.028,0,0,1,9.869-16.862c2.932-3.158,16.185-13.478,16.185-13.478s3.384-4.963,1.128-12.576l-2.256-7.669s-5.414,2.707-12.125-3.609c-3.384-2.876-2.481-12.35,3.609-11.448s5.865,6.316,5.865,6.316l4.286-1.128a28.52,28.52,0,0,1-1.8-11.673s16.185-4.511,27.633-10.546l11.448-6.09s.62,1.3,1.523,3.609h0a7.833,7.833,0,0,0,2.256-3.609c.451-2.03-.226-7.218-8.967-15.057s-16.636-5.639-16.636-5.639c-15.959-8.29-29.437,2.256-29.437,2.256s-6.542-5.188-13.252-2.538c-6.767,2.65-16.862,11.109-17.989,27.294s9.418,22.5,10.771,30.227-7.218,11.843-6.767,27.012,6.767,14.944,10.32,20.809c3.609,5.865-2.932,6.542-2.932,6.542S91.615,237.241,94.322,236.79Z" transform="translate(-77.151 -118.964)"/></clipPath><clipPath id="b"><path d="M216.422,202.745c-1.128-10.771-.9-27.407-.9-35.528s-2.256-12.125-2.256-12.125-12.012-1.353-13.873-.508-1.692,5.245-1.748,10.771c-.056,5.583.338,22.614-1.523,25.941-1.861,3.384-4.06,4.23-3.778,7.951a4.22,4.22,0,0,0-3.609,2.538c-1.184,2.538-8.572,2.538-15.847,3.44a39.225,39.225,0,0,1-13.422-.733h-.056a38.383,38.383,0,0,1-5.7,1.353s2.481,5.865,0,10.771c-2.481,4.963-13.929,8.29-20.922,0,0,0-13.252,10.32-16.185,13.478a41.7,41.7,0,0,0-9.869,16.862C103.8,255.924,102,268.781,102,268.781s38.235,9.643,77.541-1.353a21.19,21.19,0,0,1,1.8-10.546c2.481-5.414,4.511-11.448,3.835-16.636a32.881,32.881,0,0,0-3.835-10.546s19.568-2.481,27.633-8.008C217.1,216.223,217.55,213.516,216.422,202.745Z" transform="translate(-102 -154.307)"/></clipPath><clipPath id="c"><path d="M425.288,142.117c1.184-10.94,2.2-27.746-11.109-36.543s-28.817-4.229-35.753,1.128c0,0-11.617-2.707-18.046,6.936-6.429,9.587-4.229,16.016-8.572,23.967-4.4,7.951-5.245,7.106-4.568,9.418.508,1.861,4.906,4.511,11.053,8.29-.789-6.542,1.3-14.042,4.286-22.952,4.906-14.493,14.324-16.692,14.324-16.692.338,13.647,18.046,27.633,22.106,32.031s.846,9.756.846,9.756l3.384.846c2.369-5.075,6.09-8.91,9.756-7.951,3.722,1.015,5.075,8.741.169,13.309s-10.94,1.692-10.94,1.692c-.508,1.466-1.071,3.158-1.579,4.85a38.878,38.878,0,0,0,10.151.508c10.094-1.353,16.185-6.767,16.185-8.4S424.1,153.057,425.288,142.117Z" transform="translate(-347.033 -100.627)"/></clipPath><clipPath id="d"><path d="M415.722,245.545c-19.907,14.324-44.325,12.463-44.325,12.463-4.737-14.155-1.523-28.648-1.523-28.648s-14.775,2.312-18.835,1.861-5.752-2.707-7.275-2.707a20.1,20.1,0,0,0-3.553.451s-.564-3.045-2.763-3.666c0,0-7.557,3.44-10.715,13.76s-1.128,11.448.9,12.125,14.831,2.707,22.275,2.707c0,0-4.06,6.542-3.384,11.9.677,5.414,4.963,11.9,5.639,14.155s0,13.027,0,13.027l-1.128,7.218a179.157,179.157,0,0,0,40.265,5.188h20.64s17.989-1.128,20.245-13.027S425.873,248.308,415.722,245.545Z" transform="translate(-325.096 -225.3)"/></clipPath><clipPath id="e"><path d="M400.953,327.424l24.813-1.128a22.359,22.359,0,0,1,6.429,16.862v1.128s-10.263-1.353-19.681-3.722a108.173,108.173,0,0,0-17.426-3.158c-3.948-.451-5.865-2.143-8.008-4.4s-2.82-2.256-2.82-2.256,1.015,2.143,0,3.158-2.707-.564-3.722-2.256-1.579-4.173,0-5.414L382.118,325s-.9-2.82.451-3.5,3.947-3.271,7.106-4.06,4.4-.226,5.526,2.256C396.386,322.293,400.953,327.424,400.953,327.424Z" transform="translate(-379.555 -317.11)"/></clipPath><clipPath id="f"><path d="M314.763,187.728a32.5,32.5,0,0,1,1.635-7.951c3.158-10.32,10.715-13.76,10.715-13.76s-2.256-5.188-4.511-11.109-6.09-24.193-7.106-28.14-2.932-15.959-4.511-22.275-2.932-14.493-4.4-15.17-2.82,2.256-2.82,2.256-1.8-.226-2.312,3.609a27.127,27.127,0,0,0,.169,7.5c-.451,1.861,0,4.117.79,8.121s-.451,5.132,0,9.812a13.991,13.991,0,0,0,3.778,7.951s2.369,17.933,3.384,35.471c1.015,17.426,5.132,23.685,5.188,23.685Z" transform="translate(-301.265 -89.22)"/></clipPath></defs><g transform="translate(-77.151 -51.9)"><g transform="translate(191.756 51.9)"><g transform="translate(0 1.114)"><path class="a" d="M283.265,62.8a.542.542,0,0,1-.508-.395l-2.368-7.9a.5.5,0,1,1,.959-.282l2.369,7.9a.486.486,0,0,1-.338.62C283.378,62.8,283.322,62.8,283.265,62.8Z" transform="translate(-280.375 -53.875)"/></g><g transform="translate(10.278)"><path class="a" d="M299.108,60.359a.505.505,0,0,1-.508-.508V52.408a.508.508,0,1,1,1.015,0v7.444A.505.505,0,0,1,299.108,60.359Z" transform="translate(-298.6 -51.9)"/></g><g transform="translate(18.974 2.493)"><path class="a" d="M314.517,63.866a.339.339,0,0,1-.226-.056.542.542,0,0,1-.226-.677l3.609-6.542a.5.5,0,0,1,.9.451l-3.609,6.542A.575.575,0,0,1,314.517,63.866Z" transform="translate(-314.022 -56.322)"/></g></g><g transform="translate(77.151 65.76)"><path class="b" d="M182.627,161.2a76.847,76.847,0,0,1,5.865,19.117c2.03,11.448-2.03,24.926-22.727,28.535,0,0,2.481,5.865,0,10.771-2.481,4.963-13.929,8.29-20.922,0,0,0,3.384-4.963,1.128-12.576l-2.256-7.67s-5.414,2.707-12.125-3.609c-3.384-2.876-2.481-12.35,3.609-11.448s5.865,6.316,5.865,6.316l4.286-1.128a28.52,28.52,0,0,1-1.8-11.673s16.185-4.511,27.633-10.546S182.627,161.2,182.627,161.2Z" transform="translate(-100.04 -113.422)"/><path class="c" d="M216.422,202.745c-1.128-10.771-.9-27.407-.9-35.528s-2.256-12.125-2.256-12.125-12.012-1.353-13.873-.508-1.692,5.245-1.748,10.771c-.056,5.583.338,22.614-1.523,25.941-1.861,3.384-4.06,4.23-3.778,7.951a4.22,4.22,0,0,0-3.609,2.538c-1.184,2.538-8.572,2.538-15.847,3.44a39.225,39.225,0,0,1-13.422-.733h-.056a38.383,38.383,0,0,1-5.7,1.353s2.481,5.865,0,10.771c-2.481,4.963-13.929,8.29-20.922,0,0,0-13.252,10.32-16.185,13.478a41.7,41.7,0,0,0-9.869,16.862C103.8,255.924,102,268.781,102,268.781s38.235,9.643,77.541-1.353a21.19,21.19,0,0,1,1.8-10.546c2.481-5.414,4.511-11.448,3.835-16.636a32.881,32.881,0,0,0-3.835-10.546s19.568-2.481,27.633-8.008C217.1,216.223,217.55,213.516,216.422,202.745Z" transform="translate(-87.987 -110.416)"/><g transform="translate(0 23.96)"><path class="d" d="M94.322,236.79c.056,0,.056-.056.113-.056.451-1.748.959-3.5,1.466-5.132a43.028,43.028,0,0,1,9.869-16.862c2.932-3.158,16.185-13.478,16.185-13.478s3.384-4.963,1.128-12.576l-2.256-7.669s-5.414,2.707-12.125-3.609c-3.384-2.876-2.481-12.35,3.609-11.448s5.865,6.316,5.865,6.316l4.286-1.128a28.52,28.52,0,0,1-1.8-11.673s16.185-4.511,27.633-10.546l11.448-6.09s.62,1.3,1.523,3.609h0a7.833,7.833,0,0,0,2.256-3.609c.451-2.03-.226-7.218-8.967-15.057s-16.636-5.639-16.636-5.639c-15.959-8.29-29.437,2.256-29.437,2.256s-6.542-5.188-13.252-2.538c-6.767,2.65-16.862,11.109-17.989,27.294s9.418,22.5,10.771,30.227-7.218,11.843-6.767,27.012,6.767,14.944,10.32,20.809c3.609,5.865-2.932,6.542-2.932,6.542S91.615,237.241,94.322,236.79Z" transform="translate(-77.151 -118.964)"/></g><path class="e" d="M176.65,238.474a27.384,27.384,0,0,1-13.252-2.425A24.185,24.185,0,0,1,154.6,229l2.256,7.67a24.54,24.54,0,0,0,20.866,8.628A14.175,14.175,0,0,0,176.65,238.474Z" transform="translate(-110.924 -142.987)"/><g transform="translate(60.084 59.889)"><path class="a" d="M185.051,194.927a.542.542,0,0,1-.508-.395c-.056-.282-1.917-6.654.056-10.151a3.232,3.232,0,0,1,3.214-1.692c2.538.169,5.978,2.65,7.782,7.106a.518.518,0,1,1-.959.395c-1.579-4-4.737-6.316-6.88-6.429a2.285,2.285,0,0,0-2.256,1.184c-1.748,3.158,0,9.3.056,9.361a.486.486,0,0,1-.338.62Z" transform="translate(-183.695 -182.677)"/></g><g transform="translate(77.757 52.793)"><path class="a" d="M216.142,180.417a.542.542,0,0,1-.508-.395c-.9-4.568-.79-7.5.338-8.91A2.741,2.741,0,0,1,218,170.1c2.876-.169,5.809,4.511,6.147,5.075a.532.532,0,1,1-.9.564c-.79-1.3-3.327-4.681-5.188-4.568a1.572,1.572,0,0,0-1.241.62c-.9,1.184-.959,3.891-.113,8.121a.519.519,0,0,1-.395.62C216.2,180.417,216.2,180.417,216.142,180.417Z" transform="translate(-215.033 -170.092)"/></g><g transform="translate(66.787 76.02)"><path class="a" d="M200.611,216.029c-4.06,0-4.963-4.117-5.019-4.117a.52.52,0,0,1,1.015-.226,4.142,4.142,0,0,0,4.4,3.327,4.1,4.1,0,0,0,2.82-1.128,2.2,2.2,0,0,0,.451-1.41.511.511,0,1,1,1.015-.113,2.956,2.956,0,0,1-.62,2.143,4.67,4.67,0,0,1-3.553,1.523Z" transform="translate(-195.581 -211.281)"/></g><path class="f" d="M288.264,149.806s.789-4.737.169-6.429c-.564-1.692-2.087-1.015-6.09-1.072-3.948-.056-8.515-.564-8.346,1.015s.338,5.978.338,5.978C276.252,148.453,288.264,149.806,288.264,149.806Z" transform="translate(-162.987 -105.13)"/><path class="b" d="M275.769,113.653h0a47.788,47.788,0,0,1,6.993,0c2.368.056,3.835-.169,4.737,0h0s1.8-5.583,1.523-8.854-.564-7.275-.733-12.125c-.169-4.906-2.03-4.737-2.03-4.737.395-4.4,1.071-11.222-.733-11.448-1.861-.226-3.384,2.594-3.384,2.594s-1.071-.9-2.763,3.384-3.271,8.854-4.229,12.237c-.9,3.384.338,7.782.564,10.433C275.995,107.788,275.769,113.653,275.769,113.653Z" transform="translate(-163.349 -76.477)"/><g transform="translate(113.902 2.029)"><path class="g" d="M279.789,99.094a.535.535,0,0,1-.508-.451c-.395-2.143,0-3.44.9-6.6.169-.677.395-1.41.62-2.312,1.353-4.906,2.763-9.249,2.763-9.3a.535.535,0,1,1,1.015.338c0,.056-1.466,4.342-2.763,9.249-.226.846-.451,1.635-.62,2.312-.846,3.1-1.184,4.286-.846,6.147a.519.519,0,0,1-.395.62Z" transform="translate(-279.129 -80.075)"/></g><g transform="translate(118.902 10.944)"><path class="g" d="M288.505,109.371a.505.505,0,0,1-.508-.508,18.016,18.016,0,0,1,.338-3.948,42.45,42.45,0,0,0,1.072-6.147,3.546,3.546,0,0,1,1.184-2.425,2.1,2.1,0,0,1,1.523-.451.5.5,0,0,1,.451.564.549.549,0,0,1-.564.451c-.113,0-1.3-.056-1.523,1.974a37.329,37.329,0,0,1-1.128,6.316,15.532,15.532,0,0,0-.338,3.666c.056.282-.169.508-.508.508Z" transform="translate(-287.995 -95.884)"/></g><path class="g" d="M136.838,212.359a3.29,3.29,0,0,1-.338-1.466,2.151,2.151,0,0,1,.79-1.692,2.461,2.461,0,0,1,2.03-.282,3.672,3.672,0,0,1,1.523.846,6.125,6.125,0,0,1,1.635,2.594,6.252,6.252,0,0,1,.226,2.876,19.15,19.15,0,0,1-1.692-2.2,12.765,12.765,0,0,0-1.523-1.8,4,4,0,0,0-.789-.564,1.026,1.026,0,0,0-.62-.169.907.907,0,0,0-.62.564C137.233,211.457,137.064,211.908,136.838,212.359Z" transform="translate(-103.031 -134.185)"/><path class="g" d="M207.9,181.1a52.534,52.534,0,0,1,4.23,3.327c.677.508,1.353,1.071,2.03,1.579a13.587,13.587,0,0,0,2.03,1.3l.62.282-.056.564a8.139,8.139,0,0,1-.282,1.353,4.936,4.936,0,0,1-.564,1.241,4.228,4.228,0,0,1-1.917,1.8,4.973,4.973,0,0,0,.508-1.128,8.247,8.247,0,0,0,.282-1.128c.056-.395.113-.733.169-1.128v-1.071l.62.846a9.667,9.667,0,0,1-2.65-1.3,13.274,13.274,0,0,1-2.087-1.861,16.254,16.254,0,0,1-1.692-2.2A12.752,12.752,0,0,1,207.9,181.1Z" transform="translate(-134.166 -122.1)"/><g transform="translate(0 23.96)"><g class="h"><g transform="translate(16.067 4.902)"><path class="i" d="M119.209,178.886c-.113,0-.169,0-.226-.056-.169-.113-16.128-9.192-12.914-26.674,3.158-17.313,14.493-24.362,14.606-24.418a.532.532,0,1,1,.564.9c-.113.056-11.053,6.824-14.155,23.685-3.045,16.749,12.237,25.49,12.407,25.6a.542.542,0,0,1,.226.677A.78.78,0,0,1,119.209,178.886Z" transform="translate(-105.642 -127.656)"/></g><g transform="translate(39.036 2.671)"><path class="i" d="M147.008,153.7a.5.5,0,0,1-.508-.451c-.056-.677-1.523-16.523,7.049-23.065,8.459-6.429,14.324-6.485,14.606-6.485a.508.508,0,1,1,0,1.015c-.056,0-5.809.113-13.986,6.316-8.121,6.147-6.654,21.993-6.654,22.106a.518.518,0,0,1-.508.564Z" transform="translate(-146.372 -123.7)"/></g><g transform="translate(4.384 9.189)"><path class="i" d="M100.193,236.62a.8.8,0,0,1-.338-.113c-.282-.226-7.388-6.147-8.29-19.23-.508-7.613,1.861-13.309,3.948-18.271,1.523-3.666,2.932-7.106,3.158-10.884.338-5.7-2.82-9.474-6.147-13.422a40.126,40.126,0,0,1-5.414-7.613c-4-7.839-2.369-19.568,3.778-27.351,5.921-7.5,15.17-3.327,15.283-3.271a.5.5,0,0,1-.451.9c-.338-.169-8.628-3.835-14.042,2.989-5.809,7.331-7.444,18.892-3.666,26.279a37.317,37.317,0,0,0,5.3,7.388c3.5,4.117,6.767,8.064,6.429,14.155-.226,4-1.692,7.5-3.214,11.222-2.143,5.132-4.342,10.433-3.835,17.82.79,12.576,7.782,18.441,7.9,18.5a.482.482,0,0,1,.056.733A1.077,1.077,0,0,1,100.193,236.62Z" transform="translate(-84.925 -135.258)"/></g><g transform="translate(20.597 27.496)"><path class="i" d="M119.046,239.611a.429.429,0,0,1-.451-.338c-.169-.395-4.117-10.151-2.03-20.02,2.03-9.756,1.466-12.294,0-19.117s-2.82-12.068-2.876-12.125a.536.536,0,0,1,.226-.564c.113-.056,11.786-7.106,18.271-19.456a.5.5,0,0,1,.9.451c-5.978,11.5-16.354,18.441-18.328,19.681.338,1.3,1.523,6.034,2.763,11.786,1.523,6.936,2.087,9.53,0,19.512-1.974,9.587,1.974,19.343,1.974,19.456a.5.5,0,0,1-.282.677A.207.207,0,0,1,119.046,239.611Z" transform="translate(-113.674 -167.722)"/></g><g transform="translate(24.91 67.198)"><path class="i" d="M127.626,264.784h-.056a.5.5,0,0,1-.451-.564c0-.056.79-7.049-.733-12.294a117.763,117.763,0,0,0-5.019-13.083.518.518,0,0,1,.959-.395A102.626,102.626,0,0,1,127.4,251.7c1.523,5.414.79,12.407.733,12.688A.456.456,0,0,1,127.626,264.784Z" transform="translate(-121.323 -238.123)"/></g><g transform="translate(35.144 61.56)"><path class="i" d="M142.814,254.39h0a.518.518,0,0,1-.508-.564c0-.113.564-8.91-1.748-15.113-2.425-6.6-.056-10.207.056-10.376a.524.524,0,1,1,.846.62c-.056.056-2.143,3.384.056,9.418,2.369,6.429,1.861,15.17,1.8,15.565A.5.5,0,0,1,142.814,254.39Z" transform="translate(-139.47 -228.126)"/></g><g transform="translate(41.858 13.997)"><path class="i" d="M155.9,169.9a.542.542,0,0,1-.508-.338c-.056-.113-4.85-14.042-3.891-25.321a.511.511,0,1,1,1.015.113c-.959,11.109,3.835,24.757,3.835,24.926a.525.525,0,0,1-.338.677C156.013,169.9,155.957,169.9,155.9,169.9Z" transform="translate(-151.375 -143.785)"/></g><g transform="translate(45.974 9.064)"><path class="i" d="M170.983,162.2a.494.494,0,0,1-.508-.451A50.31,50.31,0,0,0,158.8,135.918a.593.593,0,0,1,0-.733.528.528,0,0,1,.733,0,52.06,52.06,0,0,1,11.955,26.392.477.477,0,0,1-.451.564C171.039,162.2,171.039,162.2,170.983,162.2Z" transform="translate(-158.675 -135.036)"/></g><g transform="translate(51.007 5.657)"><path class="i" d="M191.342,151.837a.542.542,0,0,1-.508-.395c-5.809-22.05-21.937-21.373-22.67-21.373a.536.536,0,0,1-.056-1.071c.169,0,17.708-.733,23.685,22.106a.519.519,0,0,1-.395.62C191.454,151.837,191.4,151.837,191.342,151.837Z" transform="translate(-167.6 -128.995)"/></g><g transform="translate(54.721 5.978)"><path class="i" d="M199.627,149.209a.542.542,0,0,1-.508-.338c-.056-.226-6.654-20.02-24.362-18.159a.511.511,0,0,1-.113-1.015c18.553-1.974,25.377,18.666,25.433,18.892a.525.525,0,0,1-.338.677C199.739,149.209,199.683,149.209,199.627,149.209Z" transform="translate(-174.185 -129.564)"/></g><g transform="translate(18.624 18.463)"><path class="i" d="M110.7,178.319h-.169a.575.575,0,0,1-.338-.677c.056-.169,5.865-16.974,21.881-25.885a.5.5,0,0,1,.451.9c-15.621,8.685-21.317,25.151-21.373,25.321C111.148,178.206,110.922,178.319,110.7,178.319Z" transform="translate(-110.175 -151.703)"/></g><g transform="translate(18.652 7.215)"><path class="i" d="M110.719,146.613a.431.431,0,0,1-.282-.113.535.535,0,0,1-.113-.733c.113-.169,12.012-17.2,29.663-13.478a.52.52,0,0,1-.226,1.015c-8.854-1.861-16.128,1.748-20.7,5.132a39.746,39.746,0,0,0-7.9,7.9A.575.575,0,0,1,110.719,146.613Z" transform="translate(-110.226 -131.757)"/></g></g></g><g transform="translate(14.013 43.891)"><g class="j"><g transform="translate(27.872 49.724)"><path class="f" d="M167.313,265.049c-5.809,0-9.587-1.748-11.843-3.384a12.68,12.68,0,0,1-4-4.455.518.518,0,1,1,.959-.395,12.248,12.248,0,0,0,3.722,4.117c2.481,1.8,7.049,3.722,14.437,2.932a10.381,10.381,0,0,0,7.782-4.229c4.342-6.034,2.087-16.41,2.03-16.523a.52.52,0,0,1,1.015-.226c.113.451,2.369,10.94-2.2,17.313a11.4,11.4,0,0,1-8.515,4.681Q168.92,265.049,167.313,265.049Z" transform="translate(-151.423 -242.481)"/></g><g transform="translate(23.178 83.346)"><path class="f" d="M144.453,337.289h-.169a.575.575,0,0,1-.338-.677c.056-.113,3.327-10.207,5.132-17.708,1.8-7.557-2.087-12.181-5.809-15.9a.518.518,0,0,1,.733-.733c3.948,3.948,8.008,8.854,6.09,16.918-1.8,7.557-5.075,17.707-5.132,17.82A.647.647,0,0,1,144.453,337.289Z" transform="translate(-143.1 -302.1)"/></g><g transform="translate(69.057 61.383)"><path class="f" d="M234.744,277.674a.512.512,0,0,1-.395-.169,121.908,121.908,0,0,1-9.812-13.534.532.532,0,0,1,.9-.564,119.951,119.951,0,0,0,9.7,13.422.527.527,0,0,1-.056.733C235.026,277.674,234.857,277.674,234.744,277.674Z" transform="translate(-224.456 -263.156)"/></g></g></g></g><g transform="translate(203.536 72.946)"><path class="k" d="M385.447,127.3s-9.418,2.2-14.324,16.692-7.444,25.264,1.184,34.231c8.572,8.967,15.677,8.459,15.677,8.459s-3.214,14.493,1.523,28.648c0,0,24.475,1.861,44.325-12.463a89.3,89.3,0,0,0-12.632-3.214c-5.075-.677-11.109-3.214-12.8-6.429s.508-11.109,2.369-16.185c0,0,6.09,2.876,10.94-1.692,4.906-4.568,3.553-12.294-.169-13.309s-7.444,2.876-9.756,7.951l-3.384-.846s3.214-5.414-.846-9.756C403.493,154.933,385.786,140.947,385.447,127.3Z" transform="translate(-329.768 -105.826)"/><path class="l" d="M425.288,142.117c1.184-10.94,2.2-27.746-11.109-36.543s-28.817-4.229-35.753,1.128c0,0-11.617-2.707-18.046,6.936-6.429,9.587-4.229,16.016-8.572,23.967-4.4,7.951-5.245,7.106-4.568,9.418.508,1.861,4.906,4.511,11.053,8.29-.789-6.542,1.3-14.042,4.286-22.952,4.906-14.493,14.324-16.692,14.324-16.692.338,13.647,18.046,27.633,22.106,32.031s.846,9.756.846,9.756l3.384.846c2.369-5.075,6.09-8.91,9.756-7.951,3.722,1.015,5.075,8.741.169,13.309s-10.94,1.692-10.94,1.692c-.508,1.466-1.071,3.158-1.579,4.85a38.878,38.878,0,0,0,10.151.508c10.094-1.353,16.185-6.767,16.185-8.4S424.1,153.057,425.288,142.117Z" transform="translate(-321.223 -94.194)"/><path class="g" d="M458.309,197.365a1.246,1.246,0,0,0-1.748-.508,5.8,5.8,0,0,0-1.41,1.635c-.9,1.3-1.692,2.65-2.65,3.948a10.427,10.427,0,0,1,.62-2.369,9.269,9.269,0,0,1,1.184-2.2,4.816,4.816,0,0,1,1.917-1.748,1.729,1.729,0,0,1,1.41.113A1.373,1.373,0,0,1,458.309,197.365Z" transform="translate(-367.214 -135.794)"/><g transform="translate(37.703 42.664)"><path class="a" d="M376.231,172.615h-.113a.519.519,0,0,1-.395-.62c.226-1.015.564-4.06-.395-5.357a1.6,1.6,0,0,0-1.184-.677c-2.932-.282-4.963,4.793-5.019,4.85a.518.518,0,1,1-.959-.395c.113-.226,2.368-5.865,6.09-5.527a2.57,2.57,0,0,1,1.917,1.071c1.466,1.974.62,6.034.564,6.2A.535.535,0,0,1,376.231,172.615Z" transform="translate(-368.123 -164.874)"/></g><path class="b" d="M385.408,169.6c-.451.677-.959,1.3-1.466,1.917a16.422,16.422,0,0,1-1.692,1.748,16.212,16.212,0,0,1-1.917,1.523,7.693,7.693,0,0,1-2.256,1.128l.338-.564a11.684,11.684,0,0,0,.789,2.369,5.275,5.275,0,0,0,1.41,2.087,4.686,4.686,0,0,1-1.974-1.8,9.874,9.874,0,0,1-1.128-2.481l-.113-.395.451-.169a18.11,18.11,0,0,0,3.891-2.481C382.927,171.574,384.111,170.559,385.408,169.6Z" transform="translate(-334.465 -124.271)"/><g transform="translate(51.125 47.947)"><path class="a" d="M402.568,185.78h-.113a.451.451,0,0,1-.338-.62c.733-2.594.9-6.316-.282-8.346a3.093,3.093,0,0,0-1.917-1.466c-2.932-.677-6.034,4.681-6.993,6.767a.518.518,0,0,1-.959-.395c.169-.338,3.835-8.4,8.177-7.388a4.059,4.059,0,0,1,2.594,1.917c1.579,2.594,1.015,6.993.395,9.136C402.963,185.61,402.794,185.78,402.568,185.78Z" transform="translate(-391.923 -174.243)"/></g><path class="l" d="M380.977,152.577a4.323,4.323,0,0,0-2.763.169c-1.072.62-1.41,1.917.338,2.256,1.748.282,3.44,1.128,4.173,1.071C383.458,155.961,383.683,153.423,380.977,152.577Z" transform="translate(-334.432 -116.779)"/><path class="l" d="M409.536,164.249a4.719,4.719,0,0,0-3.327-1.353c-1.917.169-2.03,1.8-1.579,2.2s2.256.959,3.271,1.748c1.071.733,2.481,2.594,3.1,2.143C411.566,168.535,412.356,166.617,409.536,164.249Z" transform="translate(-346.243 -121.345)"/><path class="b" d="M404.195,225.087s11.166,2.763,22.783-9.587c0,0-2.256,5.808-2.594,9.249,0,0-6.316,6.88-20.584,2.65C403.8,227.4,404.082,226.1,404.195,225.087Z" transform="translate(-345.977 -144.287)"/><path class="m" d="M415.722,245.545c-19.907,14.324-44.325,12.463-44.325,12.463-4.737-14.155-1.523-28.648-1.523-28.648s-14.775,2.312-18.835,1.861-5.752-2.707-7.275-2.707a20.1,20.1,0,0,0-3.553.451s-.564-3.045-2.763-3.666c0,0-7.557,3.44-10.715,13.76s-1.128,11.448.9,12.125,14.831,2.707,22.275,2.707c0,0-4.06,6.542-3.384,11.9.677,5.414,4.963,11.9,5.639,14.155s0,13.027,0,13.027l-1.128,7.218a179.157,179.157,0,0,0,40.265,5.188h20.64s17.989-1.128,20.245-13.027S425.873,248.308,415.722,245.545Z" transform="translate(-311.657 -148.56)"/><g transform="translate(41.905 60.852)"><path class="n" d="M378.521,197.788a8.147,8.147,0,0,0,5.414-.169c3.44-1.071,5.019-.338,5.583,1.635.508,1.974-2.2,5.865-8.685,5.132s-5.357-5.245-4.85-6.147S377.393,197.506,378.521,197.788Z" transform="translate(-375.574 -197.126)"/><path class="o" d="M380.189,197.791a8.147,8.147,0,0,0,5.414-.169c2.763-.846,4.342-.564,5.132.62-6.824,3.948-10.771,1.861-10.771,1.861l-.564-2.481C379.626,197.679,379.908,197.735,380.189,197.791Z" transform="translate(-377.242 -197.129)"/><path class="p" d="M388.1,206.145c1.748-4.342,6.88-5.245,6.88-5.245C395.431,202.7,393.232,206.032,388.1,206.145Z" transform="translate(-381.036 -198.772)"/></g><path class="k" d="M400.953,327.424l24.813-1.128a22.359,22.359,0,0,1,6.429,16.862v1.128s-10.263-1.353-19.681-3.722a108.173,108.173,0,0,0-17.426-3.158c-3.948-.451-5.865-2.143-8.008-4.4s-2.82-2.256-2.82-2.256,1.015,2.143,0,3.158-2.707-.564-3.722-2.256-1.579-4.173,0-5.414L382.118,325s-.9-2.82.451-3.5,3.947-3.271,7.106-4.06,4.4-.226,5.526,2.256C396.386,322.293,400.953,327.424,400.953,327.424Z" transform="translate(-335.405 -188.595)"/><path class="k" d="M314.763,187.728a32.5,32.5,0,0,1,1.635-7.951c3.158-10.32,10.715-13.76,10.715-13.76s-2.256-5.188-4.511-11.109-6.09-24.193-7.106-28.14-2.932-15.959-4.511-22.275-2.932-14.493-4.4-15.17-2.82,2.256-2.82,2.256-1.8-.226-2.312,3.609a27.127,27.127,0,0,0,.169,7.5c-.451,1.861,0,4.117.79,8.121s-.451,5.132,0,9.812a13.991,13.991,0,0,0,3.778,7.951s2.369,17.933,3.384,35.471c1.015,17.426,5.132,23.685,5.188,23.685Z" transform="translate(-301.265 -89.22)"/><g transform="translate(25.81 6.432)"><g class="q"><g transform="translate(29.353 5.554)"><path class="r" d="M399.6,120.471a.505.505,0,0,1-.508-.508,26.614,26.614,0,0,1,1.523-9.136.535.535,0,1,1,1.015.338,23.909,23.909,0,0,0-1.466,8.741.657.657,0,0,1-.564.564Z" transform="translate(-399.083 -110.475)"/></g><g transform="translate(5.747 26.673)"><path class="r" d="M357.774,173.345a.426.426,0,0,1-.226-.056.5.5,0,0,1-.282-.677s.9-2.087,2.876-8.572c2.03-6.654,8.008-15.508,8.233-15.9a.524.524,0,1,1,.846.62c-.056.113-6.147,9.136-8.121,15.621a86.566,86.566,0,0,1-2.932,8.685C358.169,173.232,358,173.345,357.774,173.345Z" transform="translate(-357.223 -147.926)"/></g><g transform="translate(2.237 10.385)"><path class="r" d="M351.508,158.324h-.056a.549.549,0,0,1-.451-.564c.056-.282,1.071-6.824,3.609-11.11a92.53,92.53,0,0,0,7.782-17.426c2.82-8.121,10.32-10.884,16.523-10.038a.511.511,0,0,1-.113,1.015,13.866,13.866,0,0,0-15.4,9.3,92.955,92.955,0,0,1-7.9,17.651c-2.481,4.117-3.5,10.658-3.5,10.771A.542.542,0,0,1,351.508,158.324Z" transform="translate(-351 -119.041)"/></g><g transform="translate(30.087 8.21)"><path class="r" d="M431.8,158.221a.505.505,0,0,1-.508-.508c-.169-2.932-5.809-15.9-17.708-24.475-12.068-8.685-13.14-17.087-13.2-17.482a.511.511,0,1,1,1.015-.113c0,.056,1.071,8.346,12.745,16.749,12.068,8.685,17.933,21.768,18.159,25.264a.6.6,0,0,1-.508.564Z" transform="translate(-400.385 -115.185)"/></g><g transform="translate(30.071 8.306)"><path class="r" d="M438.164,176.906h-.169a.451.451,0,0,1-.338-.62c.056-.113,3.045-10.884,2.087-20.809-1.015-10.264-6.429-19.174-14.1-23.29-1.917-1.015-4.117-2.03-6.429-3.1-7.106-3.271-15.113-6.993-18.779-12.914a.532.532,0,0,1,.9-.564c3.5,5.639,11.391,9.3,18.328,12.519,2.312,1.071,4.511,2.087,6.485,3.158,8.008,4.286,13.591,13.534,14.662,24.136,1.015,10.094-2.087,21.091-2.087,21.2A.9.9,0,0,1,438.164,176.906Z" transform="translate(-400.356 -115.356)"/></g><g transform="translate(30.454 5.571)"><path class="r" d="M446.976,171.012h-.113a.519.519,0,0,1-.395-.62c.789-4-.169-10.771-1.015-16.749a90.419,90.419,0,0,1-1.015-9.3v-1.015c-.056-6.767-.226-19.4-14.606-27.069-15.057-8.008-27.915-3.44-28.084-3.384a.518.518,0,0,1-.395-.959c.113-.056,13.422-4.793,28.93,3.44,14.944,7.951,15.113,21.486,15.17,27.971v1.015a90.386,90.386,0,0,0,1.015,9.192c.846,6.034,1.8,12.914,1.015,17.087A.456.456,0,0,1,446.976,171.012Z" transform="translate(-401.036 -110.505)"/></g></g></g><g transform="translate(13.439 76.74)"><g class="s"><g transform="translate(11.272 3.149)"><path class="t" d="M345.6,232.359a.494.494,0,0,1-.508-.451.477.477,0,0,1,.451-.564l3.327-.451a.511.511,0,0,1,.113,1.015l-3.327.451Z" transform="translate(-345.085 -230.885)"/></g><g transform="translate(24.3 14.395)"><path class="t" d="M368.7,265.586a.8.8,0,0,1-.338-.113.527.527,0,0,1-.056-.733c.056-.113,8.4-9.587,11.391-13.7a.524.524,0,0,1,.846.62c-3.045,4.117-11.391,13.647-11.448,13.76A.609.609,0,0,1,368.7,265.586Z" transform="translate(-368.186 -250.826)"/></g><g transform="translate(76.457 37.241)"><path class="t" d="M467.344,334.739a.207.207,0,0,1-.169-.056.575.575,0,0,1-.338-.677s.733-2.256-.451-8.741A14.891,14.891,0,0,0,462.1,317.2c-.789-.846-1.353-1.41-1.41-2.087a1.421,1.421,0,0,1,.338-1.128,4.332,4.332,0,0,1,2.82-1.015,2.636,2.636,0,0,1,.79-2.087,2.724,2.724,0,0,0,.789-2.538c-.338-3.045-4.681-16.185-4.681-16.3a.535.535,0,1,1,1.015-.338c.169.564,4.4,13.365,4.737,16.523a3.985,3.985,0,0,1-1.015,3.327,1.537,1.537,0,0,0-.451,1.748.6.6,0,0,1-.056.451.571.571,0,0,1-.395.226,4.614,4.614,0,0,0-2.65.677.6.6,0,0,0-.113.338A4.392,4.392,0,0,0,463,316.524a15.52,15.52,0,0,1,4.568,8.572c1.241,6.824.451,9.136.451,9.248A1.075,1.075,0,0,1,467.344,334.739Z" transform="translate(-460.675 -291.337)"/></g><g transform="translate(79.707 58.952)"><path class="t" d="M470.759,333.538a.378.378,0,0,1-.395-.226,7.724,7.724,0,0,0-3.553-2.481.5.5,0,1,1,.282-.959,9.011,9.011,0,0,1,4.117,2.876.535.535,0,0,1-.113.733C470.984,333.482,470.871,333.538,470.759,333.538Z" transform="translate(-466.437 -329.837)"/></g></g></g><g transform="translate(44.15 128.515)"><g class="u"><g transform="translate(2.098 6.127)"><path class="b" d="M383.8,330.358a.542.542,0,0,1-.508-.395.486.486,0,0,1,.338-.62l4.85-1.353a.5.5,0,1,1,.282.959l-4.85,1.353C383.909,330.358,383.853,330.358,383.8,330.358Z" transform="translate(-383.275 -327.975)"/></g><g transform="translate(4.526 1.221)"><path class="b" d="M388.1,321.714a.542.542,0,0,1-.508-.395.519.519,0,0,1,.395-.62,44.964,44.964,0,0,0,4.4-1.241,3.3,3.3,0,0,1,3.327.789.518.518,0,0,1-.733.733,2.238,2.238,0,0,0-2.256-.564,44.161,44.161,0,0,1-4.511,1.241C388.212,321.714,388.156,321.714,388.1,321.714Z" transform="translate(-387.581 -319.275)"/></g></g></g><g transform="translate(0 0)"><g class="v"><g transform="translate(1.799 1.779)"><path class="b" d="M306.511,103.611a.542.542,0,0,1-.508-.395c0-.056-.79-2.989-1.3-5.752a10.777,10.777,0,0,1,0-4.737.535.535,0,1,1,1.015.338,9.409,9.409,0,0,0,0,4.229c.564,2.763,1.3,5.639,1.3,5.7a.519.519,0,0,1-.395.62Z" transform="translate(-304.456 -92.375)"/></g><g transform="translate(-0.175 11.558)"><path class="b" d="M308.763,124.425s-1.071-3.1-1.748-5.132a20.576,20.576,0,0,1-.508-2.763c-.282-2.087-.564-4.681-1.8-5.47a1.966,1.966,0,0,0-2.763.733.532.532,0,0,1-.9-.564,2.942,2.942,0,0,1,4.173-1.015c1.635,1.015,1.974,3.778,2.312,6.2a11.511,11.511,0,0,0,.451,2.538c.677,2.03,1.748,5.132,1.748,5.132Z" transform="translate(-300.956 -109.715)"/></g></g></g></g></g></svg>