<svg xmlns="http://www.w3.org/2000/svg" width="29" height="32.996" viewBox="0 0 29 32.996"><defs><style>.a{fill:#012156;}</style></defs><g transform="translate(-31)"><path class="a" d="M0,0H8.993V1.933H0Z" transform="translate(42.21 12.646) rotate(-31.799)"/><path class="a" d="M0,0H1.933V8.993H0Z" transform="translate(42.212 20.352) rotate(-58.201)"/><path class="a" d="M306.8,11.6a5.8,5.8,0,1,1,5.8-5.8A5.807,5.807,0,0,1,306.8,11.6Z" transform="translate(-252.6)"/><path class="a" d="M306.8,343.6a5.8,5.8,0,1,1,5.8-5.8A5.807,5.807,0,0,1,306.8,343.6Z" transform="translate(-252.6 -310.604)"/><path class="a" d="M37.767,151a6.767,6.767,0,1,0,6.767,6.767A6.774,6.774,0,0,0,37.767,151Z" transform="translate(0 -141.269)"/><path class="a" d="M44.533,256A6.767,6.767,0,1,1,31,256Z" transform="translate(0 -239.502)"/></g></svg>