<svg xmlns="http://www.w3.org/2000/svg" width="223.031" height="121.353" viewBox="0 0 223.031 121.353"><defs><style>.a{fill:#d5d5f6;}.b{fill:#f30;}.c{fill:#048e15;}.d{fill:#00b71d;}.e{fill:#ffb605;}.f{opacity:0.7;}.g{fill:#3d3506;}.h{fill:#763404;}.i{opacity:0.8;}.j{fill:#fff;}.k{fill:#ed551f;}.l{fill:#646a76;}.m{fill:#4a4e57;}.n{fill:#ebebeb;}</style></defs><g transform="translate(-77.462 -16.227)"><path class="a" d="M311.319,146.866c.223-2.854.312-5.752.312-8.65a111.515,111.515,0,0,0-223.031,0c0,2.9.134,5.8.312,8.65Z" transform="translate(-11.138 -10.473)"/><path class="b" d="M108.8,194.156h48.646a53.617,53.617,0,0,1,12.529-33.932L132.967,128.7A102.064,102.064,0,0,0,108.8,194.156Z" transform="translate(-22.331 -66.993)"/><path class="c" d="M433.7,164.2a53.447,53.447,0,0,1,11.548,32.683h48.646A102.153,102.153,0,0,0,471.6,133.7Z" transform="translate(-202.363 -69.763)"/><path class="d" d="M340.1,46.9V95.546a53.722,53.722,0,0,1,40.977,19.663l37.855-30.454A102.205,102.205,0,0,0,340.1,46.9Z" transform="translate(-150.498 -21.666)"/><g transform="translate(111.439 25.234)"><path class="e" d="M164.8,82.437l13.689,11.682h0l23.275,19.842a53.768,53.768,0,0,1,40-18.46V46.9A102.415,102.415,0,0,0,164.8,82.437Z" transform="translate(-164.8 -46.9)"/></g><g class="f" transform="translate(143.141 50.426)"><path class="g" d="M238.62,103.4h-.045a2.683,2.683,0,0,0-2.675,2.675v2.1a2.683,2.683,0,0,0,2.675,2.675h.045a2.683,2.683,0,0,0,2.675-2.675v-2.1A2.683,2.683,0,0,0,238.62,103.4Z" transform="translate(-235.9 -103.4)"/><g transform="translate(19.485)"><path class="g" d="M282.32,103.4h-.045a2.683,2.683,0,0,0-2.675,2.675v2.1a2.683,2.683,0,0,0,2.675,2.675h.045A2.683,2.683,0,0,0,285,108.171v-2.1A2.683,2.683,0,0,0,282.32,103.4Z" transform="translate(-279.6 -103.4)"/></g></g><g class="f" transform="translate(142.383 65.809)"><path class="g" d="M259.348,140.4h-23.9a1.246,1.246,0,0,1-1.248-1.248,1.219,1.219,0,0,1,1.248-1.248h23.9a1.248,1.248,0,0,1,0,2.5Z" transform="translate(-234.2 -137.9)"/></g><g class="f" transform="translate(100.514 95.528)"><g transform="translate(16.267)"><path class="g" d="M182.6,207.839a3.769,3.769,0,0,1-3.8-3.718v-.549a.972.972,0,0,1,1.944,0v.549a1.785,1.785,0,0,0,1.775,1.775,1.8,1.8,0,0,0,1.859-1.775v-.549a.972.972,0,0,1,1.944,0v.549A3.671,3.671,0,0,1,182.6,207.839Z" transform="translate(-178.8 -202.6)"/></g><path class="g" d="M144.1,207.839a3.769,3.769,0,0,1-3.8-3.718v-.549a.972.972,0,0,1,1.944,0v.549a1.785,1.785,0,0,0,1.775,1.775,1.8,1.8,0,0,0,1.859-1.775v-.549a.972.972,0,0,1,1.944,0v.549A3.724,3.724,0,0,1,144.1,207.839Z" transform="translate(-140.3 -202.6)"/></g><g class="f" transform="translate(103.095 104.527)"><path class="g" d="M164.108,230.618a.915.915,0,0,1-.887-.592c-.085-.169-1.859-4.183-7.478-4.183s-7.394,4.014-7.478,4.183a.965.965,0,0,1-1.775-.761c.085-.211,2.282-5.366,9.253-5.366s9.168,5.155,9.253,5.366a.965.965,0,0,1-.549,1.268A.8.8,0,0,1,164.108,230.618Z" transform="translate(-146.408 -223.9)"/></g><g class="f" transform="translate(209.132 49.891)"><path class="g" d="M386.486,102.2h-.045a2.54,2.54,0,0,0-2.542,2.542v2.006a2.54,2.54,0,0,0,2.542,2.542h.045a2.54,2.54,0,0,0,2.542-2.542v-1.962A2.523,2.523,0,0,0,386.486,102.2Z" transform="translate(-383.9 -102.2)"/><g transform="translate(18.638)"><path class="g" d="M428.286,102.2h-.045a2.54,2.54,0,0,0-2.542,2.542v2.006a2.54,2.54,0,0,0,2.542,2.542h.045a2.54,2.54,0,0,0,2.542-2.542v-1.962A2.55,2.55,0,0,0,428.286,102.2Z" transform="translate(-425.7 -102.2)"/></g></g><g class="f" transform="translate(208.455 64.591)"><path class="g" d="M394.964,144.056c-9.408,0-12.351-6.911-12.485-7.223a1.2,1.2,0,0,1,.624-1.561,1.213,1.213,0,0,1,1.561.624c.089.223,2.542,5.752,10.3,5.752,7.848,0,10.3-5.707,10.3-5.752a1.189,1.189,0,1,1,2.185.936C407.315,137.144,404.328,144.056,394.964,144.056Z" transform="translate(-382.383 -135.168)"/></g><g transform="translate(251.169 94.319)"><g transform="translate(15.276)"><path class="h" d="M522.677,206.86a3.045,3.045,0,0,0-2.408-3.567,3.243,3.243,0,0,0-2.051.312v-.045a3.041,3.041,0,0,0-5.484,2.631L515.5,211.9l5.618-2.987A2.769,2.769,0,0,0,522.677,206.86Z" transform="translate(-512.44 -201.84)"/></g><path class="h" d="M478.233,206.86a3.045,3.045,0,0,1,2.408-3.567,3.244,3.244,0,0,1,2.051.312v-.045a3.041,3.041,0,0,1,5.484,2.631l-2.765,5.707-5.618-2.987A2.769,2.769,0,0,1,478.233,206.86Z" transform="translate(-478.179 -201.84)"/></g><g class="i" transform="translate(253.715 107.807)"><path class="g" d="M483.893,232.094c-.089-.178.847,7.223,9.988,7.491,9.141-.268,10.077-7.714,9.988-7.491A43.2,43.2,0,0,1,483.893,232.094Z" transform="translate(-483.888 -232.089)"/><g transform="translate(1.209 0.272)"><path class="j" d="M495.384,235.2c4.147-.089,6.911-1.159,8.784-2.5a43.179,43.179,0,0,1-17.568,0A15.6,15.6,0,0,0,495.384,235.2Z" transform="translate(-486.6 -232.7)"/></g><g transform="translate(3.662 4.196)"><path class="k" d="M504.852,242.927a14.039,14.039,0,0,0-6.376-1.427,13.228,13.228,0,0,0-6.376,1.427,11.5,11.5,0,0,0,6.376,1.917A11.625,11.625,0,0,0,504.852,242.927Z" transform="translate(-492.1 -241.5)"/></g></g><g transform="translate(223.332 69.312) rotate(101)"><path class="l" d="M276.341,244.825a14.263,14.263,0,1,1-11.548,26.084C257.57,267.744,215.3,233.5,215.3,233.5S269.118,241.66,276.341,244.825Z" transform="translate(-215.3 -233.5)"/><path class="m" d="M215.89,233.9l67.73,29.874c0-.045.045-.089.045-.134a14.3,14.3,0,0,0-7.268-18.816c-7.223-3.166-61-11.325-61-11.325S215.578,233.634,215.89,233.9Z" transform="translate(-215.355 -233.5)"/><circle class="n" cx="7.268" cy="7.268" r="7.268" transform="translate(48.022 17.122)"/><circle class="a" cx="5.707" cy="5.707" r="5.707" transform="translate(49.582 18.683)"/></g></g></svg>